<svg xmlns="http://www.w3.org/2000/svg" viewBox="0 0 196.53 117.53"><defs><style>.cls-1{fill:#ce1b1b;}</style></defs><g id="Layer_2" data-name="Layer 2"><g id="Layer_2-2" data-name="Layer 2"><rect class="cls-1" x="86.64" y="39.19" width="35.11" height="14.17" rx="1.72"/><polygon class="cls-1" points="187.87 42.49 196.53 35.38 187.87 32.29 187.87 42.49"/><path class="cls-1" d="M179.7,38.77a2.51,2.51,0,0,0-2.51-2.51h-24A1.74,1.74,0,0,0,151.49,38V60.38a.76.76,0,0,1-.77.77H135.41a.76.76,0,0,1-.77-.77V31.45a.77.77,0,0,1,.77-.77h48L97.34,0,0,34.81l11.49,9.84V33.47h58a.32.32,0,0,1,.32.32V43.6a1.08,1.08,0,0,1-1.09,1.08H28.41a1.89,1.89,0,0,0-1.89,1.89v7.48a1.89,1.89,0,0,0,1.89,1.89H68.72A1.08,1.08,0,0,1,69.81,57v7.7a1.09,1.09,0,0,1-1.09,1.09H36.2l60.4,51.72,83.1-68.32ZM129.51,57.89a.76.76,0,0,1-.77.77H96A1.29,1.29,0,0,0,94.68,60V72.57a.76.76,0,0,1-.77.77H76.41a.76.76,0,0,1-.77-.77V32.15a.76.76,0,0,1,.77-.77h52.33a.76.76,0,0,1,.77.77Z"/></g></g></svg>